<?xml version="1.0" standalone="no"?>
<!DOCTYPE svg PUBLIC "-//W3C//DTD SVG 20010904//EN"
 "http://www.w3.org/TR/2001/REC-SVG-20010904/DTD/svg10.dtd">
<svg version="1.0" xmlns="http://www.w3.org/2000/svg"
 width="126.000000pt" height="126.000000pt" viewBox="0 0 126.000000 126.000000"
 preserveAspectRatio="xMidYMid meet">
<metadata>
Created by potrace 1.10, written by Peter Selinger 2001-2011
</metadata>
<g transform="translate(0.000000,126.000000) scale(0.100000,-0.100000)"
fill="#204a87" stroke="none">
<path d="M590 1245 c0 -10 -11 -15 -35 -15 -43 0 -137 -19 -149 -31 -6 -5 -15
-9 -22 -9 -7 0 -44 -18 -83 -41 -105 -61 -211 -184 -250 -290 -48 -135 -54
-167 -47 -254 7 -96 24 -185 37 -200 5 -5 9 -14 9 -21 0 -7 18 -44 41 -83 67
-117 194 -219 324 -261 39 -12 80 -26 93 -31 34 -13 114 -11 219 6 126 20 252
84 328 167 95 102 132 169 165 296 6 25 17 42 25 42 12 0 15 16 15 75 0 54 -4
75 -13 75 -8 0 -17 27 -24 74 -18 109 -87 239 -170 317 -71 66 -129 106 -177
121 -17 5 -40 14 -51 18 -11 5 -39 14 -62 20 -26 6 -43 17 -43 25 0 12 -15 15
-65 15 -51 0 -65 -3 -65 -15z m37 -93 c6 -15 -52 -40 -110 -48 -32 -5 -46 -2
-56 10 -21 25 -42 19 -103 -29 -53 -42 -98 -58 -98 -36 0 9 78 58 153 97 36
18 39 18 51 2 7 -10 21 -18 30 -18 9 0 16 8 16 18 0 14 9 17 57 17 36 0 58 -4
60 -13z m269 -47 c86 -46 167 -132 221 -235 43 -82 83 -242 64 -254 -14 -9
-59 92 -64 144 -6 56 -24 102 -62 159 -34 51 -107 122 -138 134 -11 4 -25 15
-32 23 -16 23 -55 9 -55 -19 0 -28 10 -42 34 -50 18 -7 18 -8 1 -27 -16 -17
-20 -18 -45 -5 -39 20 -99 23 -110 5 -19 -30 -11 -50 19 -50 15 0 42 -5 59
-11 27 -9 30 -13 21 -32 -15 -32 14 -97 42 -97 19 0 21 4 16 37 -4 20 -13 41
-22 45 -31 18 -11 48 31 48 21 0 46 -65 42 -108 l-3 -37 -50 0 c-27 0 -60 4
-72 8 -21 8 -22 6 -16 -30 3 -21 7 -39 8 -41 1 -2 19 7 39 19 34 20 40 20 108
9 69 -12 93 -24 82 -42 -7 -11 -48 -10 -59 1 -6 4 -31 11 -57 14 -41 6 -51 3
-73 -17 -29 -27 -31 -39 -9 -60 20 -20 44 -21 44 -1 0 8 -7 15 -15 15 -8 0
-15 7 -15 15 0 19 16 20 27 1 4 -7 22 -18 38 -23 l30 -10 -37 -18 c-21 -11
-38 -25 -38 -32 0 -19 -40 -16 -46 5 -3 9 -10 25 -15 34 -5 10 -9 24 -9 31 0
20 -35 57 -53 57 -22 0 -33 -41 -15 -54 19 -14 46 -70 54 -111 5 -27 2 -33
-15 -38 -12 -3 -21 -12 -21 -19 0 -22 -40 -37 -90 -35 -43 2 -45 3 -45 32 0
22 4 29 15 26 70 -19 120 -5 120 32 0 13 -9 32 -20 42 -11 10 -20 31 -20 47 0
54 -15 68 -74 68 -49 0 -57 3 -92 40 -33 34 -40 37 -54 26 -8 -8 -30 -21 -47
-30 -32 -16 -33 -16 -33 4 0 13 -7 20 -20 20 -11 0 -20 -6 -20 -13 0 -8 -9
-22 -20 -32 -22 -20 -25 -50 -9 -92 13 -34 25 -43 63 -43 41 0 96 -21 96 -37
0 -7 4 -13 9 -13 19 0 41 -32 41 -60 0 -16 5 -32 11 -36 8 -4 8 -9 0 -17 -14
-14 -14 -124 -1 -132 6 -3 8 -16 5 -28 -3 -12 1 -31 9 -42 16 -20 16 -20 44
11 16 16 44 42 64 57 20 15 35 33 35 40 -1 48 7 70 36 100 17 18 40 38 51 44
15 8 16 14 7 30 -10 19 -7 21 23 25 19 2 39 2 45 0 6 -2 -19 -32 -56 -68 -59
-56 -67 -68 -69 -104 -2 -35 -10 -48 -69 -105 -62 -59 -71 -65 -110 -65 -51 0
-55 7 -55 92 0 33 -5 78 -12 100 -9 31 -9 44 0 59 7 10 12 26 12 34 0 17 -16
20 -25 5 -11 -17 -27 1 -21 23 7 29 -11 47 -47 47 -58 0 -107 21 -113 49 -3
14 -9 34 -15 43 -18 35 -10 70 28 112 54 60 85 76 148 76 52 0 56 -2 80 -39
29 -43 52 -51 141 -51 42 0 55 4 64 19 17 33 12 53 -12 51 -39 -4 -48 0 -48
16 0 17 33 16 73 -1 14 -6 17 -2 17 20 0 33 -20 53 -59 61 -26 6 -31 3 -36
-19 -4 -14 -15 -33 -26 -43 -18 -16 -19 -16 -19 11 0 16 7 37 17 47 15 17 14
18 -20 18 -20 0 -46 -4 -59 -9 -77 -30 -139 -44 -148 -35 -15 15 -1 46 17 40
7 -3 33 3 56 13 23 11 68 21 100 24 43 3 64 10 80 26 21 21 21 23 5 51 -9 15
-14 31 -10 34 12 12 40 5 57 -14 10 -11 23 -20 29 -20 17 0 76 62 76 80 0 15
8 30 16 30 2 0 24 -11 50 -25z m-246 -76 c0 -14 -30 -38 -47 -39 -14 0 -18 32
-6 43 11 12 53 8 53 -4z m-120 -33 c0 -22 -17 -28 -41 -15 -17 9 -19 13 -8 20
22 14 49 11 49 -5z m430 -26 c11 -11 20 -25 20 -32 0 -7 12 -24 27 -40 34 -36
53 -148 24 -148 -16 0 -48 68 -44 95 4 29 -14 55 -72 103 -13 11 -13 17 -4 28
15 19 25 18 49 -6z m-377 -141 c-8 -29 -13 -23 -13 14 0 22 3 28 9 18 5 -7 6
-22 4 -32z m522 -118 c3 -5 1 -12 -5 -16 -5 -3 -10 -21 -10 -39 0 -39 -18 -96
-31 -96 -9 0 -12 12 -23 79 -5 27 -1 40 16 58 23 24 43 29 53 14z m-667 -62
c4 -37 -11 -53 -36 -40 -25 13 -37 58 -21 77 10 12 15 13 33 1 12 -8 22 -25
24 -38z m62 -10 c0 -27 -4 -49 -10 -49 -12 0 -24 63 -15 89 11 35 25 13 25
-40z m-390 -124 c5 -44 12 -95 16 -112 8 -40 2 -42 -22 -5 -18 28 -55 236 -46
261 10 26 42 -63 52 -144z m522 116 c28 -25 30 -31 19 -45 -18 -21 -43 -20
-71 2 -18 15 -20 21 -11 45 13 34 23 34 63 -2z m7 -250 c18 -12 5 -68 -19 -81
-15 -8 -21 -6 -30 9 -27 51 6 99 49 72z m158 -113 c-25 -46 -47 -61 -47 -30 0
16 52 71 67 72 1 0 -8 -19 -20 -42z"/>
<path d="M390 775 c0 -8 9 -15 20 -15 11 0 20 7 20 15 0 8 -9 15 -20 15 -11 0
-20 -7 -20 -15z"/>
</g>
</svg>
